<?xml version="1.0" encoding="UTF-8" standalone="no"?>
<!-- Created with Inkscape (http://www.inkscape.org/) -->

<svg
   xmlns:dc="http://purl.org/dc/elements/1.1/"
   xmlns:cc="http://creativecommons.org/ns#"
   xmlns:rdf="http://www.w3.org/1999/02/22-rdf-syntax-ns#"
   xmlns:svg="http://www.w3.org/2000/svg"
   xmlns="http://www.w3.org/2000/svg"
   xmlns:inkscape="http://www.inkscape.org/namespaces/inkscape"
   version="1.1"
   width="354.33069"
   height="354.33069"
   id="svg2">
  <defs
     id="defs4">
    <inkscape:path-effect
       effect="spiro"
       id="path-effect3820" />
    <inkscape:path-effect
       effect="skeletal"
       id="path-effect3816" />
    <inkscape:path-effect
       effect="spiro"
       id="path-effect3814" />
    <inkscape:path-effect
       effect="skeletal"
       id="path-effect3810" />
    <inkscape:path-effect
       effect="spiro"
       id="path-effect3808" />
    <inkscape:path-effect
       effect="spiro"
       id="path-effect3022" />
  </defs>
  <metadata
     id="metadata7">
    <rdf:RDF>
      <cc:Work
         rdf:about="">
        <dc:format>image/svg+xml</dc:format>
        <dc:type
           rdf:resource="http://purl.org/dc/dcmitype/StillImage" />
        <dc:title></dc:title>
      </cc:Work>
    </rdf:RDF>
  </metadata>
  <g
     transform="translate(0,-698.03147)"
     id="layer1">
    <path
       d="m 197.81102,947.89072 c -2.78509,-0.009 -5.55665,1.12962 -7.53125,3.09375 l -18.4375,18.4375 0,59.68753 18.4375,18.4062 c 1.96946,1.9754 4.74184,3.1257 7.53125,3.125 l 144.125,0 c 2.78119,0 5.5334,-1.1584 7.5,-3.125 1.9666,-1.9666 3.12343,-4.7188 3.125,-7.5 l 0,-16 -10.09375,0 0,4.4375 -15.59375,0 0,-4.4375 -15.0625,0 0,-13.5 0,-13.49998 0,-9 0,-13.5 15.0625,0 0,-4.4375 15.59375,0 0,4.4375 10.09375,0 0,-16 c -0.002,-2.78119 -1.1584,-5.5334 -3.125,-7.5 -1.9666,-1.9666 -4.71881,-3.12343 -7.5,-3.125 l -144.125,0 z m 0.59375,6.71875 c 3.13107,0 5.6875,2.55644 5.6875,5.6875 0,3.13106 -2.55643,5.65625 -5.6875,5.65625 -3.13106,0 -5.65625,-2.52519 -5.65625,-5.65625 0,-3.13106 2.52519,-5.6875 5.65625,-5.6875 z m 141.75,0 c 3.13106,0 5.65625,2.55644 5.65625,5.6875 0,3.13106 -2.52519,5.65625 -5.65625,5.65625 -3.13106,0 -5.6875,-2.52519 -5.6875,-5.65625 0,-3.13106 2.55644,-5.6875 5.6875,-5.6875 z m -141.75,77.96873 c 3.13107,0 5.6875,2.5252 5.6875,5.6563 0,3.131 -2.55643,5.6875 -5.6875,5.6875 -3.13106,0 -5.65625,-2.5565 -5.65625,-5.6875 0,-3.1311 2.52519,-5.6563 5.65625,-5.6563 z m 141.75,0 c 3.13106,0 5.65625,2.5252 5.65625,5.6563 0,3.131 -2.52519,5.6875 -5.65625,5.6875 -3.13106,0 -5.6875,-2.5565 -5.6875,-5.6875 0,-3.1311 2.55644,-5.6563 5.6875,-5.6563 z"
       id="path3826"
       style="font-size:medium;font-style:normal;font-variant:normal;font-weight:normal;font-stretch:normal;text-indent:0;text-align:start;text-decoration:none;line-height:normal;letter-spacing:normal;word-spacing:normal;text-transform:none;direction:ltr;block-progression:tb;writing-mode:lr-tb;text-anchor:start;baseline-shift:baseline;color:#000000;fill:#999999;fill-opacity:1;fill-rule:nonzero;stroke:none;stroke-width:21.25984192;marker:none;visibility:visible;display:inline;overflow:visible;enable-background:accumulate;font-family:Sans;-inkscape-font-specification:Sans" />
    <path
       d="m 156.51156,968.81713 c 2.78509,0.009 5.55666,-1.12962 7.53125,-3.09375 l 18.4375,-18.4375 0,-59.6875 -18.4375,-18.40625 c -1.96946,-1.97536 -4.74184,-3.12573 -7.53125,-3.125 l -144.124995,0 c -2.78119,0.002 -5.54466,1.14714 -7.51126,3.11374 -1.9666,1.9666 -3.11217,4.73007 -3.11374,7.51126 l 0,81.5 c 0.002,2.78119 1.14714,5.54466 3.11374,7.51126 1.9666,1.9666 4.73007,3.11217 7.51126,3.11374 z m -0.60605,-6.72734 c -3.13106,0 -5.6752,-2.53823 -5.6752,-5.66929 0,-3.13106 2.54414,-5.66929 5.6752,-5.66929 3.13106,0 5.66855,2.53823 5.66855,5.66929 0,3.13106 -2.53749,5.66929 -5.66855,5.66929 z m -141.732285,0 c -3.13106,0 -5.66929,-2.53823 -5.66929,-5.66929 0,-3.13106 2.53823,-5.66929 5.66929,-5.66929 3.13106,0 5.66929,2.53823 5.66929,5.66929 0,3.13106 -2.53823,5.66929 -5.66929,5.66929 z M 155.90551,884.13703 c -3.13106,0 -5.66929,-2.53823 -5.66929,-5.66929 0,-3.13106 2.53823,-5.66929 5.66929,-5.66929 3.13106,0 5.66855,2.53823 5.66855,5.66929 0,3.13106 -2.53749,5.66929 -5.66855,5.66929 z m -141.732285,0 c -3.13106,0 -5.66929,-2.53823 -5.66929,-5.66929 0,-3.13106 2.53823,-5.66929 5.66929,-5.66929 3.13106,0 5.66929,2.53823 5.66929,5.66929 0,3.13106 -2.53823,5.66929 -5.66929,5.66929 z"
       id="path3857"
       style="font-size:medium;font-style:normal;font-variant:normal;font-weight:normal;font-stretch:normal;text-indent:0;text-align:start;text-decoration:none;line-height:normal;letter-spacing:normal;word-spacing:normal;text-transform:none;direction:ltr;block-progression:tb;writing-mode:lr-tb;text-anchor:start;baseline-shift:baseline;color:#000000;fill:#999999;fill-opacity:1;fill-rule:nonzero;stroke:none;stroke-width:21.25984192;marker:none;visibility:visible;display:inline;overflow:visible;enable-background:accumulate;font-family:Sans;-inkscape-font-specification:Sans" />
    <path
       d="m 197.81914,782.79941 c -2.78509,-0.009 -5.55665,1.12962 -7.53125,3.09375 l -18.4375,18.4375 0,59.68753 18.4375,18.4062 c 1.96946,1.9754 4.74184,3.1257 7.53125,3.125 l 144.125,0 c 2.78119,0 5.5334,-1.1584 7.5,-3.125 1.9666,-1.9666 3.12343,-4.7188 3.125,-7.5 l 0,-16 -10.09375,0 0,4.4375 -15.59375,0 0,-4.4375 -15.0625,0 0,-13.5 0,-13.49998 0,-9 0,-13.5 15.0625,0 0,-4.4375 15.59375,0 0,4.4375 10.09375,0 0,-16 c -0.002,-2.78119 -1.1584,-5.5334 -3.125,-7.5 -1.9666,-1.9666 -4.71881,-3.12343 -7.5,-3.125 l -144.125,0 z m 0.59375,6.71875 c 3.13107,0 5.6875,2.55644 5.6875,5.6875 0,3.13106 -2.55643,5.65625 -5.6875,5.65625 -3.13106,0 -5.65625,-2.52519 -5.65625,-5.65625 0,-3.13106 2.52519,-5.6875 5.65625,-5.6875 z m 141.75,0 c 3.13106,0 5.65625,2.55644 5.65625,5.6875 0,3.13106 -2.52519,5.65625 -5.65625,5.65625 -3.13106,0 -5.6875,-2.52519 -5.6875,-5.65625 0,-3.13106 2.55644,-5.6875 5.6875,-5.6875 z m -141.75,77.96873 c 3.13107,0 5.6875,2.5252 5.6875,5.6563 0,3.131 -2.55643,5.6875 -5.6875,5.6875 -3.13106,0 -5.65625,-2.5565 -5.65625,-5.6875 0,-3.1311 2.52519,-5.6563 5.65625,-5.6563 z m 141.75,0 c 3.13106,0 5.65625,2.5252 5.65625,5.6563 0,3.131 -2.52519,5.6875 -5.65625,5.6875 -3.13106,0 -5.6875,-2.5565 -5.6875,-5.6875 0,-3.1311 2.55644,-5.6563 5.6875,-5.6563 z"
       id="path3869"
       style="font-size:medium;font-style:normal;font-variant:normal;font-weight:normal;font-stretch:normal;text-indent:0;text-align:start;text-decoration:none;line-height:normal;letter-spacing:normal;word-spacing:normal;text-transform:none;direction:ltr;block-progression:tb;writing-mode:lr-tb;text-anchor:start;baseline-shift:baseline;color:#000000;fill:#999999;fill-opacity:1;fill-rule:nonzero;stroke:none;stroke-width:21.25984192;marker:none;visibility:visible;display:inline;overflow:visible;enable-background:accumulate;font-family:Sans;-inkscape-font-specification:Sans" />
    <path
       d="m 156.51156,802.2817 c 2.78509,0.009 5.55666,-1.12962 7.53125,-3.09375 l 18.4375,-18.4375 0,-59.6875 -18.4375,-18.40625 c -1.96946,-1.97536 -4.74184,-3.12573 -7.53125,-3.125 l -144.124997,0 c -2.78119,0.002 -5.544661,1.14714 -7.5112614,3.11374 -1.9666,1.9666 -3.11217,4.73007 -3.11374,7.51126 l 0,81.5 c 0.002,2.78119 1.14714,5.54466 3.11374,7.51126 1.9666004,1.9666 4.7300714,3.11217 7.5112614,3.11374 z m -0.60605,-6.72734 c -3.13106,0 -5.6752,-2.53823 -5.6752,-5.66929 0,-3.13106 2.54414,-5.66929 5.6752,-5.66929 3.13106,0 5.66855,2.53823 5.66855,5.66929 0,3.13106 -2.53749,5.66929 -5.66855,5.66929 z m -141.732287,0 c -3.13106,0 -5.66929,-2.53823 -5.66929,-5.66929 0,-3.13106 2.53823,-5.66929 5.66929,-5.66929 3.13106,0 5.66929,2.53823 5.66929,5.66929 0,3.13106 -2.53823,5.66929 -5.66929,5.66929 z M 155.90551,717.6016 c -3.13106,0 -5.66929,-2.53823 -5.66929,-5.66929 0,-3.13106 2.53823,-5.66929 5.66929,-5.66929 3.13106,0 5.66855,2.53823 5.66855,5.66929 0,3.13106 -2.53749,5.66929 -5.66855,5.66929 z m -141.732287,0 c -3.13106,0 -5.66929,-2.53823 -5.66929,-5.66929 0,-3.13106 2.53823,-5.66929 5.66929,-5.66929 3.13106,0 5.66929,2.53823 5.66929,5.66929 0,3.13106 -2.53823,5.66929 -5.66929,5.66929 z"
       id="path3871"
       style="font-size:medium;font-style:normal;font-variant:normal;font-weight:normal;font-stretch:normal;text-indent:0;text-align:start;text-decoration:none;line-height:normal;letter-spacing:normal;word-spacing:normal;text-transform:none;direction:ltr;block-progression:tb;writing-mode:lr-tb;text-anchor:start;baseline-shift:baseline;color:#000000;fill:#999999;fill-opacity:1;fill-rule:nonzero;stroke:none;stroke-width:21.25984192;marker:none;visibility:visible;display:inline;overflow:visible;enable-background:accumulate;font-family:Sans;-inkscape-font-specification:Sans" />
    <path
       d="m 197.80906,699.80802 c -2.78509,-0.01 -5.55665,1.1297 -7.53125,3.0938 l -0.875,0.875 c -0.0497,0.063 -0.10795,0.1237 -0.15625,0.1875 -1.35221,1.7852 -2.15625,4.025 -2.15625,6.4687 l 0,0.7188 c 0,5.8889 4.64668,10.625 10.4375,10.625 0.15975,0 0.3108,-0.024 0.46875,-0.031 0.13755,0.01 0.26723,0.031 0.40625,0.031 5.30008,0 9.59375,-4.2624 9.59375,-9.5625 l 0,-1.0625 0,-0.7188 0,-3.5312 122.59375,0 0,3.5312 0,0.7188 0,1.0625 c 0,5.3001 4.26242,9.5625 9.5625,9.5625 0.17095,0 0.33131,-0.023 0.5,-0.031 0.18678,0.01 0.37323,0.031 0.5625,0.031 l 0.71875,0 c 5.88896,0 10.625,-4.7361 10.625,-10.625 l 0,-0.7188 c 0,-0.3471 -0.0303,-0.6929 -0.0625,-1.0312 -0.002,-0.02 0.002,-0.042 0,-0.062 -0.033,-0.3273 -0.0945,-0.6512 -0.15625,-0.9688 -0.0692,-0.3404 -0.14824,-0.6989 -0.25,-1.0312 -0.10176,-0.3323 -0.21066,-0.6477 -0.34375,-0.9688 -0.0126,-0.031 -0.0183,-0.063 -0.0312,-0.094 -0.1247,-0.2959 -0.25627,-0.5623 -0.40625,-0.8437 -0.0106,-0.02 -0.0205,-0.043 -0.0312,-0.062 -0.15887,-0.2933 -0.34639,-0.5681 -0.53125,-0.8438 -0.005,-0.01 0.005,-0.024 0,-0.031 -0.18579,-0.2755 -0.38356,-0.5563 -0.59375,-0.8125 -0.005,-0.01 0.005,-0.025 0,-0.031 -0.21533,-0.2629 -0.47826,-0.4782 -0.71875,-0.7187 -0.24049,-0.2405 -0.45586,-0.5034 -0.71875,-0.7188 -0.006,0 -0.0247,0 -0.0312,0 -0.26254,-0.2141 -0.53059,-0.4058 -0.8125,-0.5937 -0.007,0 -0.0239,0 -0.0312,0 -0.27065,-0.1795 -0.5579,-0.3769 -0.84375,-0.5313 -0.0418,-0.023 -0.0828,-0.04 -0.125,-0.062 -0.25789,-0.135 -0.51333,-0.261 -0.78125,-0.375 -0.0294,-0.012 -0.0642,-0.019 -0.0937,-0.031 -0.32109,-0.1331 -0.63646,-0.2419 -0.96875,-0.3437 -0.33229,-0.1018 -0.6908,-0.1808 -1.03125,-0.25 -0.32028,-0.065 -0.64386,-0.1211 -0.96875,-0.1563 -0.0204,0 -0.0421,0 -0.0625,0 -0.34557,-0.035 -0.6836,-0.062 -1.03125,-0.062 l -141.75,0 -2.375,0 z m 0.59375,6.7188 c 3.13107,0 5.6875,2.5564 5.6875,5.6875 0,3.131 -2.55643,5.6562 -5.6875,5.6562 -3.13106,0 -5.65625,-2.5252 -5.65625,-5.6562 0,-3.1311 2.52519,-5.6875 5.65625,-5.6875 z m 141.75,0 c 3.13106,0 5.65625,2.5564 5.65625,5.6875 0,3.131 -2.52519,5.6562 -5.65625,5.6562 -3.13106,0 -5.6875,-2.5252 -5.6875,-5.6562 0,-3.1311 2.55644,-5.6875 5.6875,-5.6875 z"
       id="path3879"
       style="font-size:medium;font-style:normal;font-variant:normal;font-weight:normal;font-stretch:normal;text-indent:0;text-align:start;text-decoration:none;line-height:normal;letter-spacing:normal;word-spacing:normal;text-transform:none;direction:ltr;block-progression:tb;writing-mode:lr-tb;text-anchor:start;baseline-shift:baseline;color:#000000;fill:#999999;fill-opacity:1;fill-rule:nonzero;stroke:none;stroke-width:21.25984192;marker:none;visibility:visible;display:inline;overflow:visible;enable-background:accumulate;font-family:Sans;-inkscape-font-specification:Sans" />
    <path
       d="m 156.52166,1050.5957 c 2.78509,0.01 5.55665,-1.1297 7.53125,-3.0938 l 0.875,-0.875 c 0.0497,-0.063 0.10795,-0.1237 0.15625,-0.1875 1.35221,-1.7852 2.15625,-4.025 2.15625,-6.4687 l 0,-0.7188 c 0,-5.8889 -4.64668,-10.625 -10.4375,-10.625 -0.15975,0 -0.3108,0.024 -0.46875,0.031 -0.13755,-0.01 -0.26723,-0.031 -0.40625,-0.031 -5.30008,0 -9.59375,4.2624 -9.59375,9.5625 l 0,1.0625 0,0.7188 0,3.5312 -122.593756,0 0,-3.5312 0,-0.7188 0,-1.0625 c 0,-5.3001 -4.26242,-9.5625 -9.5625,-9.5625 -0.17095,0 -0.33131,0.023 -0.5,0.031 -0.18678,-0.01 -0.37323,-0.031 -0.5625,-0.031 l -0.71875,0 c -5.8889599,0 -10.6250005,4.7361 -10.6250005,10.625 l 0,0.7188 c 0,0.3471 0.0303,0.6929 0.0625,1.0312 0.002,0.02 -0.002,0.042 0,0.062 0.033,0.3273 0.0945,0.6512 0.15625,0.9688 0.0692,0.3404 0.14824,0.6989 0.25,1.0312 0.10176,0.3323 0.21066,0.6477 0.34375,0.9688 0.0126,0.031 0.0183,0.063 0.0312,0.094 0.1247,0.2959 0.25627,0.5623 0.40625,0.8437 0.0106,0.02 0.0205,0.043 0.0312,0.062 0.15887,0.2933 0.34639,0.5681 0.53125,0.8438 0.005,0.01 -0.005,0.024 0,0.031 0.18579,0.2755 0.38356,0.5563 0.59375,0.8125 0.005,0.01 -0.005,0.025 0,0.031 0.21533,0.2629 0.47826,0.4782 0.71875,0.7187 0.24049,0.2405 0.45586,0.5034 0.7187506,0.7188 0.006,0 0.0247,0 0.0312,0 0.26254,0.2141 0.53059,0.4058 0.8125,0.5937 0.007,0 0.0239,0 0.0312,0 0.27065,0.1795 0.5579,0.3769 0.84375,0.5313 0.0418,0.023 0.0828,0.04 0.125,0.062 0.25789,0.135 0.51333,0.261 0.78125,0.375 0.0294,0.012 0.0642,0.019 0.0937,0.031 0.32109,0.1331 0.63646,0.2419 0.96875,0.3437 0.33229,0.1018 0.6908,0.1808 1.0312499,0.25 0.32028,0.065 0.64386,0.1211 0.96875,0.1563 0.0204,0 0.0421,0 0.0625,0 0.34557,0.035 0.6836,0.062 1.03125,0.062 l 141.750006,0 2.375,0 z m -0.59375,-6.7188 c -3.13107,0 -5.6875,-2.5564 -5.6875,-5.6875 0,-3.131 2.55643,-5.6562 5.6875,-5.6562 3.13106,0 5.65625,2.5252 5.65625,5.6562 0,3.1311 -2.52519,5.6875 -5.65625,5.6875 z m -141.750006,0 c -3.13106,0 -5.6562499,-2.5564 -5.6562499,-5.6875 0,-3.131 2.5251899,-5.6562 5.6562499,-5.6562 3.13106,0 5.6875,2.5252 5.6875,5.6562 0,3.1311 -2.55644,5.6875 -5.6875,5.6875 z"
       id="path3881"
       style="font-size:medium;font-style:normal;font-variant:normal;font-weight:normal;font-stretch:normal;text-indent:0;text-align:start;text-decoration:none;line-height:normal;letter-spacing:normal;word-spacing:normal;text-transform:none;direction:ltr;block-progression:tb;writing-mode:lr-tb;text-anchor:start;baseline-shift:baseline;color:#000000;fill:#999999;fill-opacity:1;fill-rule:nonzero;stroke:none;stroke-width:21.25984192;marker:none;visibility:visible;display:inline;overflow:visible;enable-background:accumulate;font-family:Sans;-inkscape-font-specification:Sans" />
    <path
       d="m 197.80906,727.43568 c -2.78509,-0.01 -5.55665,1.1297 -7.53125,3.0938 l -0.875,0.875 c -0.0497,0.063 -0.10795,0.1237 -0.15625,0.1875 -1.35221,1.7852 -2.15625,4.025 -2.15625,6.4687 l 0,0.7188 c 0,5.8889 4.64668,10.625 10.4375,10.625 0.15975,0 0.3108,-0.024 0.46875,-0.031 0.13755,0.01 0.26723,0.031 0.40625,0.031 5.30008,0 9.59375,-4.2624 9.59375,-9.5625 l 0,-1.0625 0,-0.7188 0,-3.5312 122.59375,0 0,3.5312 0,0.7188 0,1.0625 c 0,5.3001 4.26242,9.5625 9.5625,9.5625 0.17095,0 0.33131,-0.023 0.5,-0.031 0.18678,0.01 0.37323,0.031 0.5625,0.031 l 0.71875,0 c 5.88896,0 10.625,-4.7361 10.625,-10.625 l 0,-0.7188 c 0,-0.3471 -0.0303,-0.6929 -0.0625,-1.0312 -0.002,-0.02 0.002,-0.042 0,-0.062 -0.033,-0.3273 -0.0945,-0.6512 -0.15625,-0.9688 -0.0692,-0.3404 -0.14824,-0.6989 -0.25,-1.0312 -0.10176,-0.3323 -0.21066,-0.6477 -0.34375,-0.9688 -0.0126,-0.031 -0.0183,-0.063 -0.0312,-0.094 -0.1247,-0.2959 -0.25627,-0.5623 -0.40625,-0.8437 -0.0106,-0.02 -0.0205,-0.043 -0.0312,-0.062 -0.15887,-0.2933 -0.34639,-0.5681 -0.53125,-0.8438 -0.005,-0.01 0.005,-0.024 0,-0.031 -0.18579,-0.2755 -0.38356,-0.5563 -0.59375,-0.8125 -0.005,-0.01 0.005,-0.025 0,-0.031 -0.21533,-0.2629 -0.47826,-0.4782 -0.71875,-0.7187 -0.24049,-0.2405 -0.45586,-0.5034 -0.71875,-0.7188 -0.006,0 -0.0247,0 -0.0312,0 -0.26254,-0.2141 -0.53059,-0.4058 -0.8125,-0.5937 -0.007,0 -0.0239,0 -0.0312,0 -0.27065,-0.1795 -0.5579,-0.3769 -0.84375,-0.5313 -0.0418,-0.023 -0.0828,-0.04 -0.125,-0.062 -0.25789,-0.135 -0.51333,-0.261 -0.78125,-0.375 -0.0294,-0.012 -0.0642,-0.019 -0.0937,-0.031 -0.32109,-0.1331 -0.63646,-0.2419 -0.96875,-0.3437 -0.33229,-0.1018 -0.6908,-0.1808 -1.03125,-0.25 -0.32028,-0.065 -0.64386,-0.1211 -0.96875,-0.1563 -0.0204,0 -0.0421,0 -0.0625,0 -0.34557,-0.035 -0.6836,-0.062 -1.03125,-0.062 l -141.75,0 -2.375,0 z m 0.59375,6.7188 c 3.13107,0 5.6875,2.5564 5.6875,5.6875 0,3.131 -2.55643,5.6562 -5.6875,5.6562 -3.13106,0 -5.65625,-2.5252 -5.65625,-5.6562 0,-3.1311 2.52519,-5.6875 5.65625,-5.6875 z m 141.75,0 c 3.13106,0 5.65625,2.5564 5.65625,5.6875 0,3.131 -2.52519,5.6562 -5.65625,5.6562 -3.13106,0 -5.6875,-2.5252 -5.6875,-5.6562 0,-3.1311 2.55644,-5.6875 5.6875,-5.6875 z"
       id="path3883"
       style="font-size:medium;font-style:normal;font-variant:normal;font-weight:normal;font-stretch:normal;text-indent:0;text-align:start;text-decoration:none;line-height:normal;letter-spacing:normal;word-spacing:normal;text-transform:none;direction:ltr;block-progression:tb;writing-mode:lr-tb;text-anchor:start;baseline-shift:baseline;color:#000000;fill:#999999;fill-opacity:1;fill-rule:nonzero;stroke:none;stroke-width:21.25984192;marker:none;visibility:visible;display:inline;overflow:visible;enable-background:accumulate;font-family:Sans;-inkscape-font-specification:Sans" />
    <path
       d="m 156.52161,1024.7297 c 2.7851,0.01 5.5567,-1.1298 7.5313,-3.0939 l 0.875,-0.875 c 0.05,-0.063 0.1079,-0.1237 0.1562,-0.1875 1.3523,-1.7852 2.1563,-4.025 2.1563,-6.4687 l 0,-0.7188 c 0,-5.8889 -4.6467,-10.625 -10.4375,-10.625 -0.1598,0 -0.3108,0.024 -0.4688,0.031 -0.1375,-0.01 -0.2672,-0.031 -0.4062,-0.031 -5.3001,0 -9.5938,4.2624 -9.5938,9.5625 l 0,1.0625 0,0.7188 0,3.5312 -122.593707,0 0,-3.5312 0,-0.7188 0,-1.0625 c 0,-5.3001 -4.26242,-9.5625 -9.5625,-9.5625 -0.17095,0 -0.33131,0.023 -0.5,0.031 -0.18678,-0.01 -0.37323,-0.031 -0.5625,-0.031 l -0.71875,0 c -5.8889594,0 -10.6249995,4.7361 -10.6249995,10.625 l 0,0.7188 c 0,0.3471 0.0303,0.6929 0.0625,1.0312 0.002,0.02 -0.002,0.042 0,0.062 0.033,0.3273 0.0945,0.6512 0.15625,0.9688 0.0692,0.3404 0.14824,0.6989 0.25,1.0312 0.10176,0.3323 0.2106601,0.6477 0.3437501,0.9688 0.0126,0.031 0.0183,0.063 0.0312,0.094 0.1247,0.2959 0.25627,0.5623 0.40625,0.8437 0.0106,0.02 0.0205,0.043 0.0312,0.062 0.15887,0.2933 0.34639,0.5681 0.53125,0.8438 0.005,0.01 -0.005,0.024 0,0.031 0.18579,0.2755 0.38356,0.5563 0.59375,0.8125 0.005,0.01 -0.005,0.025 0,0.031 0.21533,0.2629 0.47826,0.4782 0.71875,0.7187 0.24049,0.2405 0.45586,0.5034 0.71875,0.7188 0.006,0 0.0247,0 0.0312,0 0.26254,0.2141 0.53059,0.4058 0.8125,0.5937 0.007,0 0.0239,0 0.0312,0 0.27065,0.1795 0.5579,0.3769 0.84375,0.5313 0.0418,0.023 0.0828,0.04 0.125,0.062 0.25789,0.135 0.51333,0.261 0.78125,0.375 0.0294,0.012 0.0642,0.019 0.0937,0.031 0.32109,0.1332 0.63646,0.242 0.96875,0.3438 0.33229,0.1018 0.6908,0.1808 1.0312504,0.25 0.32028,0.065 0.64386,0.1211 0.96875,0.1563 0.0204,0 0.0421,0 0.0625,0 0.345569,0.035 0.683599,0.062 1.031249,0.062 l 141.750007,0 2.375,0 z m -0.5937,-6.7189 c -3.1311,0 -5.6875,-2.5564 -5.6875,-5.6875 0,-3.131 2.5564,-5.6562 5.6875,-5.6562 3.1311,0 5.6562,2.5252 5.6562,5.6562 0,3.1311 -2.5251,5.6875 -5.6562,5.6875 z m -141.750007,0 c -3.131059,0 -5.6562494,-2.5564 -5.6562494,-5.6875 0,-3.131 2.5251904,-5.6562 5.6562494,-5.6562 3.13106,0 5.6875,2.5252 5.6875,5.6562 0,3.1311 -2.55644,5.6875 -5.6875,5.6875 z"
       id="path3885"
       style="font-size:medium;font-style:normal;font-variant:normal;font-weight:normal;font-stretch:normal;text-indent:0;text-align:start;text-decoration:none;line-height:normal;letter-spacing:normal;word-spacing:normal;text-transform:none;direction:ltr;block-progression:tb;writing-mode:lr-tb;text-anchor:start;baseline-shift:baseline;color:#000000;fill:#999999;fill-opacity:1;fill-rule:nonzero;stroke:none;stroke-width:21.25984192;marker:none;visibility:visible;display:inline;overflow:visible;enable-background:accumulate;font-family:Sans;-inkscape-font-specification:Sans" />
    <path
       d="m 156.52166,998.15478 c 2.78509,0.01 5.55665,-1.1297 7.53125,-3.0938 l 0.875,-0.875 c 0.0497,-0.063 0.10795,-0.1237 0.15625,-0.1875 1.35221,-1.7852 2.15625,-4.025 2.15625,-6.4687 l 0,-0.7188 c 0,-5.8889 -4.64668,-10.625 -10.4375,-10.625 -0.15975,0 -0.3108,0.024 -0.46875,0.031 -0.13755,-0.01 -0.26723,-0.031 -0.40625,-0.031 -5.30008,0 -9.59375,4.2624 -9.59375,9.5625 l 0,1.0625 0,0.7188 0,3.5312 -122.593756,0 0,-3.5312 0,-0.7188 0,-1.0625 c 0,-5.3001 -4.26242,-9.5625 -9.5625,-9.5625 -0.17095,0 -0.33131,0.023 -0.5,0.031 -0.18678,-0.01 -0.37323,-0.031 -0.5625,-0.031 l -0.71875,0 c -5.8889605,0 -10.6250005,4.7361 -10.6250005,10.625 l 0,0.7188 c 0,0.3471 0.0303,0.6929 0.0625,1.0312 0.002,0.02 -0.002,0.042 0,0.062 0.033,0.3273 0.0945,0.6512 0.15625,0.9688 0.0692,0.3404 0.14824,0.6989 0.25,1.0312 0.10176,0.3323 0.21066,0.6477 0.34375,0.9688 0.0126,0.031 0.0183,0.063 0.0312,0.094 0.1247,0.2959 0.25627,0.5623 0.40625,0.8437 0.0106,0.02 0.0205,0.043 0.0312,0.062 0.15887,0.2933 0.34639,0.5681 0.53125,0.8438 0.005,0.01 -0.005,0.024 0,0.031 0.18579,0.2755 0.38356,0.5563 0.59375,0.8125 0.005,0.01 -0.005,0.025 0,0.031 0.21533,0.2629 0.47826,0.4782 0.71875,0.7187 0.24049,0.2405 0.45586,0.5034 0.71875,0.7188 0.006,0 0.0247,0 0.0312,0 0.26254,0.2141 0.53059,0.4058 0.8125,0.5937 0.007,0 0.0239,0 0.0312,0 0.27065,0.1795 0.5579,0.3769 0.84375,0.5313 0.0418,0.023 0.0828,0.04 0.125,0.062 0.25789,0.135 0.51333,0.261 0.7812499,0.375 0.0294,0.012 0.0642,0.019 0.0937,0.031 0.32109,0.1331 0.63646,0.2419 0.96875,0.3437 0.33229,0.1018 0.6908,0.1808 1.0312506,0.25 0.32028,0.065 0.64386,0.1211 0.96875,0.1563 0.0204,0 0.0421,0 0.0625,0 0.34557,0.035 0.6836,0.062 1.03125,0.062 l 141.750006,0 2.375,0 z m -0.59375,-6.7188 c -3.13107,0 -5.6875,-2.5564 -5.6875,-5.6875 0,-3.131 2.55643,-5.6562 5.6875,-5.6562 3.13106,0 5.65625,2.5252 5.65625,5.6562 0,3.1311 -2.52519,5.6875 -5.65625,5.6875 z m -141.750006,0 c -3.13106,0 -5.6562506,-2.5564 -5.6562506,-5.6875 0,-3.131 2.5251906,-5.6562 5.6562506,-5.6562 3.13106,0 5.6875,2.5252 5.6875,5.6562 0,3.1311 -2.55644,5.6875 -5.6875,5.6875 z"
       id="path3887"
       style="font-size:medium;font-style:normal;font-variant:normal;font-weight:normal;font-stretch:normal;text-indent:0;text-align:start;text-decoration:none;line-height:normal;letter-spacing:normal;word-spacing:normal;text-transform:none;direction:ltr;block-progression:tb;writing-mode:lr-tb;text-anchor:start;baseline-shift:baseline;color:#000000;fill:#999999;fill-opacity:1;fill-rule:nonzero;stroke:none;stroke-width:21.25984192;marker:none;visibility:visible;display:inline;overflow:visible;enable-background:accumulate;font-family:Sans;-inkscape-font-specification:Sans" />
    <path
       d="m 198.27781,754.27918 c -2.78509,-0.01 -5.55665,1.1297 -7.53125,3.0938 l -0.875,0.875 c -0.0497,0.063 -0.10795,0.1237 -0.15625,0.1875 -1.35221,1.7852 -2.15625,4.025 -2.15625,6.4687 l 0,0.7188 c 0,5.8889 4.64668,10.625 10.4375,10.625 0.15975,0 0.3108,-0.024 0.46875,-0.031 0.13755,0.01 0.26723,0.031 0.40625,0.031 5.30008,0 9.59375,-4.2624 9.59375,-9.5625 l 0,-1.0625 0,-0.7188 0,-3.5312 122.59375,0 0,3.5312 0,0.7188 0,1.0625 c 0,5.3001 4.26242,9.5625 9.5625,9.5625 0.17095,0 0.33131,-0.023 0.5,-0.031 0.18678,0.01 0.37323,0.031 0.5625,0.031 l 0.71875,0 c 5.88896,0 10.625,-4.7361 10.625,-10.625 l 0,-0.7188 c 0,-0.3471 -0.0303,-0.6929 -0.0625,-1.0312 -0.002,-0.02 0.002,-0.042 0,-0.062 -0.033,-0.3273 -0.0945,-0.6512 -0.15625,-0.9688 -0.0692,-0.3404 -0.14824,-0.6989 -0.25,-1.0312 -0.10176,-0.3323 -0.21066,-0.6477 -0.34375,-0.9688 -0.0126,-0.031 -0.0183,-0.063 -0.0312,-0.094 -0.1247,-0.2959 -0.25627,-0.5623 -0.40625,-0.8437 -0.0106,-0.02 -0.0205,-0.043 -0.0312,-0.062 -0.15887,-0.2933 -0.34639,-0.5681 -0.53125,-0.8438 -0.005,-0.01 0.005,-0.024 0,-0.031 -0.18579,-0.2755 -0.38356,-0.5563 -0.59375,-0.8125 -0.005,-0.01 0.005,-0.025 0,-0.031 -0.21533,-0.2629 -0.47826,-0.4782 -0.71875,-0.7187 -0.24049,-0.2405 -0.45586,-0.5034 -0.71875,-0.7188 -0.006,0 -0.0247,0 -0.0312,0 -0.26254,-0.2141 -0.53059,-0.4058 -0.8125,-0.5937 -0.007,0 -0.0239,0 -0.0312,0 -0.27065,-0.1795 -0.5579,-0.3769 -0.84375,-0.5313 -0.0418,-0.023 -0.0828,-0.04 -0.125,-0.062 -0.25789,-0.135 -0.51333,-0.261 -0.78125,-0.375 -0.0294,-0.012 -0.0642,-0.019 -0.0937,-0.031 -0.32109,-0.1331 -0.63646,-0.2419 -0.96875,-0.3437 -0.33229,-0.1018 -0.6908,-0.1808 -1.03125,-0.25 -0.32028,-0.065 -0.64386,-0.1211 -0.96875,-0.1563 -0.0204,0 -0.0421,0 -0.0625,0 -0.34557,-0.035 -0.6836,-0.062 -1.03125,-0.062 l -141.75,0 -2.375,0 z m 0.59375,6.7188 c 3.13107,0 5.6875,2.5564 5.6875,5.6875 0,3.131 -2.55643,5.6562 -5.6875,5.6562 -3.13106,0 -5.65625,-2.5252 -5.65625,-5.6562 0,-3.1311 2.52519,-5.6875 5.65625,-5.6875 z m 141.75,0 c 3.13106,0 5.65625,2.5564 5.65625,5.6875 0,3.131 -2.52519,5.6562 -5.65625,5.6562 -3.13106,0 -5.6875,-2.5252 -5.6875,-5.6562 0,-3.1311 2.55644,-5.6875 5.6875,-5.6875 z"
       id="path3889"
       style="font-size:medium;font-style:normal;font-variant:normal;font-weight:normal;font-stretch:normal;text-indent:0;text-align:start;text-decoration:none;line-height:normal;letter-spacing:normal;word-spacing:normal;text-transform:none;direction:ltr;block-progression:tb;writing-mode:lr-tb;text-anchor:start;baseline-shift:baseline;color:#000000;fill:#999999;fill-opacity:1;fill-rule:nonzero;stroke:none;stroke-width:21.25984192;marker:none;visibility:visible;display:inline;overflow:visible;enable-background:accumulate;font-family:Sans;-inkscape-font-specification:Sans" />
    <path
       d="m 54.217028,823.11462 c -5.28367,0 -9.5625,4.2788 -9.5625,9.5625 0,5.2837 4.27883,9.5625 9.5625,9.5625 5.28367,0 9.5625,-4.2788 9.5625,-9.5625 0,-5.2837 -4.27883,-9.5625 -9.5625,-9.5625 z m 0,3.875 c 3.13106,0 5.65625,2.5564 5.65625,5.6875 0,3.131 -2.52519,5.6562 -5.65625,5.6562 -3.13106,0 -5.6875,-2.5252 -5.6875,-5.6562 0,-3.1311 2.55644,-5.6875 5.6875,-5.6875 z"
       id="path3929"
       style="fill:#999999;fill-opacity:1;stroke:none" />
    <path
       d="m 96.736713,823.11462 c -5.28367,0 -9.5625,4.2788 -9.5625,9.5625 0,5.2837 4.27883,9.5625 9.5625,9.5625 5.283667,0 9.562497,-4.2788 9.562497,-9.5625 0,-5.2837 -4.27883,-9.5625 -9.562497,-9.5625 z m 0,3.875 c 3.13106,0 5.656247,2.5564 5.656247,5.6875 0,3.131 -2.525187,5.6562 -5.656247,5.6562 -3.13106,0 -5.6875,-2.5252 -5.6875,-5.6562 0,-3.1311 2.55644,-5.6875 5.6875,-5.6875 z"
       id="path3931"
       style="fill:#999999;fill-opacity:1;stroke:none" />
    <path
       d="m 139.2564,823.11462 c -5.28367,0 -9.56249,4.2788 -9.56249,9.5625 0,5.2837 4.27882,9.5625 9.56249,9.5625 5.28367,0 9.5625,-4.2788 9.5625,-9.5625 0,-5.2837 -4.27883,-9.5625 -9.5625,-9.5625 z m 0,3.875 c 3.13106,0 5.65625,2.5564 5.65625,5.6875 0,3.131 -2.52519,5.6562 -5.65625,5.6562 -3.13106,0 -5.6875,-2.5252 -5.6875,-5.6562 0,-3.1311 2.55644,-5.6875 5.6875,-5.6875 z"
       id="path3933"
       style="fill:#999999;fill-opacity:1;stroke:none" />
    <path
       d="m 215.0743,908.15399 c -5.28367,0 -9.56249,4.2788 -9.56249,9.5625 0,5.2837 4.27882,9.5625 9.56249,9.5625 5.28368,0 9.56251,-4.2788 9.56251,-9.5625 0,-5.2837 -4.27883,-9.5625 -9.56251,-9.5625 z m 0,3.875 c 3.13107,0 5.65626,2.5564 5.65626,5.6875 0,3.131 -2.52519,5.6562 -5.65626,5.6562 -3.13106,0 -5.6875,-2.5252 -5.6875,-5.6562 0,-3.1311 2.55644,-5.6875 5.6875,-5.6875 z"
       id="path3935"
       style="fill:#999999;fill-opacity:1;stroke:none" />
    <path
       d="m 250.50738,908.15399 c -5.28367,0 -9.5625,4.2788 -9.5625,9.5625 0,5.2837 4.27883,9.5625 9.5625,9.5625 5.28367,0 9.5625,-4.2788 9.5625,-9.5625 0,-5.2837 -4.27883,-9.5625 -9.5625,-9.5625 z m 0,3.875 c 3.13106,0 5.65625,2.5564 5.65625,5.6875 0,3.131 -2.52519,5.6562 -5.65625,5.6562 -3.13106,0 -5.6875,-2.5252 -5.6875,-5.6562 0,-3.1311 2.55644,-5.6875 5.6875,-5.6875 z"
       id="path3937"
       style="fill:#999999;fill-opacity:1;stroke:none" />
    <path
       d="m 285.94045,908.15399 c -5.28367,0 -9.5625,4.2788 -9.5625,9.5625 0,5.2837 4.27883,9.5625 9.5625,9.5625 5.28367,0 9.5625,-4.2788 9.5625,-9.5625 0,-5.2837 -4.27883,-9.5625 -9.5625,-9.5625 z m 0,3.875 c 3.13106,0 5.65625,2.5564 5.65625,5.6875 0,3.131 -2.52519,5.6562 -5.65625,5.6562 -3.13106,0 -5.6875,-2.5252 -5.6875,-5.6562 0,-3.1311 2.55644,-5.6875 5.6875,-5.6875 z"
       id="path3939"
       style="fill:#999999;fill-opacity:1;stroke:none" />
  </g>
</svg>
